<svg width="172" height="149" viewBox="0 0 172 149" fill="none" xmlns="http://www.w3.org/2000/svg">
<g filter="url(#filter0_d_1_49)">
<path d="M115.316 101.325H69.987C63.0642 101.323 56.2782 99.396 50.3875 95.7595C44.4967 92.123 39.7332 86.9202 36.6292 80.7322C33.5252 74.5443 32.203 67.6152 32.8104 60.7191C33.4178 53.823 35.9309 47.2317 40.0687 41.6816C44.2066 36.1316 49.8063 31.8415 56.242 29.2907C62.6778 26.74 69.696 26.0291 76.5125 27.2374C83.329 28.4458 89.6753 31.5259 94.842 36.1334C100.009 40.741 103.793 46.6945 105.771 53.3287H115.316C121.681 53.3287 127.785 55.857 132.285 60.3575C136.786 64.858 139.314 70.962 139.314 77.3266C139.314 83.6912 136.786 89.7952 132.285 94.2957C127.785 98.7962 121.681 101.325 115.316 101.325Z" fill="white" fill-opacity="0.95" stroke="white" stroke-opacity="0.95" stroke-width="5.33287" stroke-linecap="round" stroke-linejoin="round"/>
</g>
<defs>
<filter id="filter0_d_1_49" x="-8.00887" y="-15" width="187.989" height="187.989" filterUnits="userSpaceOnUse" color-interpolation-filters="sRGB">
<feFlood flood-opacity="0" result="BackgroundImageFix"/>
<feColorMatrix in="SourceAlpha" type="matrix" values="0 0 0 0 0 0 0 0 0 0 0 0 0 0 0 0 0 0 127 0" result="hardAlpha"/>
<feOffset dy="15"/>
<feGaussianBlur stdDeviation="15"/>
<feColorMatrix type="matrix" values="0 0 0 0 0 0 0 0 0 0 0 0 0 0 0 0 0 0 0.3 0"/>
<feBlend mode="normal" in2="BackgroundImageFix" result="effect1_dropShadow_1_49"/>
<feBlend mode="normal" in="SourceGraphic" in2="effect1_dropShadow_1_49" result="shape"/>
</filter>
</defs>
</svg>
