<svg width="16" height="16" viewBox="0 0 16 16" fill="none" xmlns="http://www.w3.org/2000/svg">
<path d="M4.66493 10.8627C6.13105 10.8627 7.33061 9.64311 7.33061 8.16366C7.33061 7.39061 6.95075 6.65755 6.19103 6.03778C5.43131 5.41801 4.85819 4.49835 4.66493 3.53204C4.47167 4.49835 3.90521 5.42467 3.13883 6.03778C2.37245 6.65088 1.99926 7.39727 1.99926 8.16366C1.99926 9.64311 3.19881 10.8627 4.66493 10.8627Z" stroke="white" stroke-opacity="0.6" stroke-width="1.33284" stroke-linecap="round" stroke-linejoin="round"/>
<path d="M8.37022 4.39835C8.82856 3.66604 9.15346 2.85829 9.32986 2.01257C9.66307 3.67862 10.6627 5.27803 11.9955 6.3443C13.3284 7.41057 13.9948 8.67676 13.9948 10.0096C13.9986 10.9308 13.7288 11.8324 13.2196 12.6C12.7104 13.3677 11.9848 13.9669 11.1346 14.3217C10.2845 14.6764 9.34814 14.7708 8.44431 14.5927C7.54048 14.4147 6.70986 13.9724 6.05775 13.3217" stroke="white" stroke-opacity="0.6" stroke-width="1.33284" stroke-linecap="round" stroke-linejoin="round"/>
</svg>
