<svg width="20" height="20" viewBox="0 0 20 20" fill="none" xmlns="http://www.w3.org/2000/svg">
<g clip-path="url(#clip0_1_13)">
<path d="M16.6529 8.32644C16.6529 12.4838 12.0409 16.8136 10.4922 18.1508C10.3479 18.2593 10.1722 18.318 9.99173 18.318C9.81122 18.318 9.63559 18.2593 9.49131 18.1508C7.94259 16.8136 3.33058 12.4838 3.33058 8.32644C3.33058 6.55979 4.03238 4.8655 5.28158 3.61629C6.53079 2.36709 8.22508 1.66529 9.99173 1.66529C11.7584 1.66529 13.4527 2.36709 14.7019 3.61629C15.9511 4.8655 16.6529 6.55979 16.6529 8.32644Z" stroke="white" stroke-opacity="0.8" stroke-width="1.66529" stroke-linecap="round" stroke-linejoin="round"/>
<path d="M9.99173 10.8244C11.3713 10.8244 12.4897 9.70601 12.4897 8.32644C12.4897 6.94687 11.3713 5.82851 9.99173 5.82851C8.61216 5.82851 7.4938 6.94687 7.4938 8.32644C7.4938 9.70601 8.61216 10.8244 9.99173 10.8244Z" stroke="white" stroke-opacity="0.8" stroke-width="1.66529" stroke-linecap="round" stroke-linejoin="round"/>
</g>
<defs>
<clipPath id="clip0_1_13">
<rect width="19.9835" height="19.9835" fill="white"/>
</clipPath>
</defs>
</svg>
