<svg width="96" height="96" viewBox="0 0 96 96" fill="none" xmlns="http://www.w3.org/2000/svg">
<path d="M47.9912 63.9883C56.8262 63.9883 63.9883 56.8262 63.9883 47.9913C63.9883 39.1563 56.8262 31.9942 47.9912 31.9942C39.1563 31.9942 31.9942 39.1563 31.9942 47.9913C31.9942 56.8262 39.1563 63.9883 47.9912 63.9883Z" fill="white" stroke="white" stroke-width="5.99891" stroke-linecap="round" stroke-linejoin="round"/>
<path d="M47.9912 7.99854V15.9971V7.99854Z" fill="white"/>
<path d="M47.9912 7.99854V15.9971" stroke="white" stroke-width="5.99891" stroke-linecap="round" stroke-linejoin="round"/>
<path d="M47.9912 79.9854V87.984V79.9854Z" fill="white"/>
<path d="M47.9912 79.9854V87.984" stroke="white" stroke-width="5.99891" stroke-linecap="round" stroke-linejoin="round"/>
<path d="M19.7164 19.7164L25.3554 25.3554L19.7164 19.7164Z" fill="white"/>
<path d="M19.7164 19.7164L25.3554 25.3554" stroke="white" stroke-width="5.99891" stroke-linecap="round" stroke-linejoin="round"/>
<path d="M70.6271 70.6271L76.2661 76.2661L70.6271 70.6271Z" fill="white"/>
<path d="M70.6271 70.6271L76.2661 76.2661" stroke="white" stroke-width="5.99891" stroke-linecap="round" stroke-linejoin="round"/>
<path d="M7.99854 47.9912H15.9971H7.99854Z" fill="white"/>
<path d="M7.99854 47.9912H15.9971" stroke="white" stroke-width="5.99891" stroke-linecap="round" stroke-linejoin="round"/>
<path d="M79.9854 47.9912H87.984H79.9854Z" fill="white"/>
<path d="M79.9854 47.9912H87.984" stroke="white" stroke-width="5.99891" stroke-linecap="round" stroke-linejoin="round"/>
<path d="M25.3554 70.6271L19.7164 76.2661L25.3554 70.6271Z" fill="white"/>
<path d="M25.3554 70.6271L19.7164 76.2661" stroke="white" stroke-width="5.99891" stroke-linecap="round" stroke-linejoin="round"/>
<path d="M76.2661 19.7164L70.6271 25.3554L76.2661 19.7164Z" fill="white"/>
<path d="M76.2661 19.7164L70.6271 25.3554" stroke="white" stroke-width="5.99891" stroke-linecap="round" stroke-linejoin="round"/>
</svg>
