<svg width="16" height="16" viewBox="0 0 16 16" fill="none" xmlns="http://www.w3.org/2000/svg">
<path d="M9.32986 2.66566V9.68972C9.83805 9.98312 10.2352 10.436 10.4598 10.9782C10.6843 11.5203 10.7237 12.1214 10.5719 12.6882C10.42 13.255 10.0853 13.7559 9.61978 14.1131C9.15424 14.4703 8.58383 14.6639 7.99702 14.6639C7.41022 14.6639 6.83981 14.4703 6.37426 14.1131C5.90872 13.7559 5.57405 13.255 5.42218 12.6882C5.2703 12.1214 5.3097 11.5203 5.53426 10.9782C5.75882 10.436 6.15599 9.98312 6.66418 9.68972V2.66566C6.66418 2.31217 6.80461 1.97316 7.05456 1.7232C7.30452 1.47325 7.64353 1.33282 7.99702 1.33282C8.35051 1.33282 8.68952 1.47325 8.93948 1.7232C9.18944 1.97316 9.32986 2.31217 9.32986 2.66566Z" stroke="white" stroke-opacity="0.6" stroke-width="1.33284" stroke-linecap="round" stroke-linejoin="round"/>
</svg>
