<svg width="16" height="16" viewBox="0 0 16 16" fill="none" xmlns="http://www.w3.org/2000/svg">
<g clip-path="url(#clip0_1_79)">
<path d="M8.53016 13.0618C8.69912 13.1885 8.89576 13.2733 9.1039 13.3091C9.31203 13.3449 9.52569 13.3307 9.72728 13.2678C9.92886 13.2048 10.1126 13.0948 10.2633 12.9469C10.4141 12.799 10.5275 12.6174 10.5943 12.417C10.6611 12.2167 10.6793 12.0033 10.6475 11.7946C10.6156 11.5858 10.5346 11.3876 10.4111 11.2162C10.2876 11.0449 10.1252 10.9054 9.93722 10.8091C9.74923 10.7129 9.54106 10.6627 9.32987 10.6627H1.33284" stroke="white" stroke-opacity="0.6" stroke-width="1.33284" stroke-linecap="round" stroke-linejoin="round"/>
<path d="M11.6623 5.33134C11.8327 5.10415 12.0584 4.92428 12.3178 4.80882C12.5773 4.69336 12.862 4.64615 13.1448 4.67165C13.4276 4.69715 13.6993 4.79453 13.9339 4.95454C14.1685 5.11455 14.3583 5.33188 14.4853 5.58589C14.6123 5.83989 14.6723 6.12215 14.6595 6.40585C14.6468 6.68955 14.5617 6.96528 14.4124 7.20686C14.2631 7.44843 14.0545 7.64783 13.8065 7.78613C13.5584 7.92442 13.2792 7.99701 12.9952 7.99701H1.33284" stroke="white" stroke-opacity="0.6" stroke-width="1.33284" stroke-linecap="round" stroke-linejoin="round"/>
<path d="M6.53091 2.93222C6.69986 2.8055 6.89651 2.72075 7.10464 2.68494C7.31277 2.64914 7.52644 2.66331 7.72802 2.72628C7.9296 2.78925 8.11334 2.89922 8.26408 3.04713C8.41483 3.19504 8.52827 3.37665 8.59505 3.57701C8.66184 3.77736 8.68005 3.99072 8.64821 4.19949C8.61636 4.40827 8.53535 4.60648 8.41186 4.77781C8.28838 4.94914 8.12595 5.08867 7.93796 5.1849C7.74997 5.28114 7.5418 5.33133 7.33061 5.33133H1.33284" stroke="white" stroke-opacity="0.6" stroke-width="1.33284" stroke-linecap="round" stroke-linejoin="round"/>
</g>
<defs>
<clipPath id="clip0_1_79">
<rect width="15.9941" height="15.9941" fill="white"/>
</clipPath>
</defs>
</svg>
